<svg xmlns="http://www.w3.org/2000/svg" viewBox="0 0 371.44 371.44"><defs><style>.cls-1{fill:#2c355f;}.cls-2{fill:#c3dde0;}.cls-3{fill:#dce9ea;}.cls-4{fill:#fff;}.cls-5{fill:#f9f5af;}.cls-6{fill:none;stroke:#2c355f;stroke-miterlimit:10;stroke-width:2.4px;}.cls-7{fill:#f9f6cf;}.cls-8{fill:#fcfad2;}.cls-9{fill:#846d61;}.cls-10{fill:#fcf99d;}</style></defs><title>Final Logo</title><g id="Layer_2" data-name="Layer 2"><g id="Layer_1-2" data-name="Layer 1"><g id="Final_Logo" data-name="Final Logo"><circle class="cls-1" cx="185.72" cy="185.72" r="185.72"/><path class="cls-2" d="M140.58,174s-45-14.46-74.47-39.43a11.34,11.34,0,0,0-14.86.31c-8.31,8.09-16,23.66,12.85,44.05,0,0-24.39,22.66,20,34.48,0,0-1.11,19.71,31,11.34,0,0,8.87,22.37,31,2.07Z"/><path class="cls-3" d="M52.06,142.62s-25.37,25.23,61.31,47.12C113.37,189.74,54.58,174.78,52.06,142.62Z"/><path class="cls-3" d="M65.63,189.74s-10.82,19.95,48.14,19.78C113.77,209.52,73.75,209.56,65.63,189.74Z"/><path class="cls-3" d="M89.31,215.74s1.45,15,35.47.93C124.78,216.67,101.66,226.19,89.31,215.74Z"/><path class="cls-2" d="M230.86,174s45-14.46,74.47-39.43a11.34,11.34,0,0,1,14.86.31c8.3,8.09,16,23.66-12.85,44.05,0,0,24.38,22.66-19.95,34.48,0,0,1.1,19.71-31,11.34,0,0-8.86,22.37-31,2.07Z"/><path class="cls-3" d="M319.37,142.62s25.38,25.23-61.3,47.12C258.07,189.74,316.86,174.78,319.37,142.62Z"/><path class="cls-3" d="M305.8,189.74s10.83,19.95-48.13,19.78C257.67,209.52,297.68,209.56,305.8,189.74Z"/><path class="cls-3" d="M282.13,215.74s-1.45,15-35.47.93C246.66,216.67,269.78,226.19,282.13,215.74Z"/><path class="cls-4" d="M290.6,139.6a6.66,6.66,0,0,0-3,12.62c-4.06,20.2-16.44,28.69-25,32.22,4.18-20.74,3-43.27-16.13-54.42,0,0-30.4-13.24-60.69,2.25,0,0-28-16.47-64.27,1.21s3.59,94.76,3.59,94.76-2.61,68.51,27.79,71.54c0,0,16.3,2.6,12.13-24s7.63-51.11,21-52.27,23.8,26.78,21.51,51.08,14,25.19,14,25.19,26.57,6.6,24.91-70.95a186.85,186.85,0,0,0,14.22-36.28c24.53-8,31.16-27.59,32.78-40.28a6.66,6.66,0,0,0-2.87-12.67Z"/><path class="cls-5" d="M162.3,118.62s23.81-10.33,47.18,0l15.27-36.84-20.67,9.88-5.39-20.14L184.8,91.21,170.38,71.52l-3.59,20.14L146.12,82.9Z"/><circle class="cls-1" cx="168.53" cy="166.74" r="5.17"/><circle class="cls-1" cx="201.59" cy="166.74" r="5.17"/><path class="cls-6" d="M171.94,185.68s1.22,8.67,13.76,8.7,13.23-8.7,13.23-8.7"/><path class="cls-7" d="M150.27,86.86l13.09,29s13.32-5.25,22.08-4.28l-1-17.49-13-16.91-3.6,16.52Z"/><g id="wand"><path class="cls-8" d="M276.71,94.56s2.25.08,2.79-.32a6.56,6.56,0,0,0,1.14-2.2,11.14,11.14,0,0,0,.06,2.68,24,24,0,0,0,2.17,1.18s-2.35-.24-2.75.25a11,11,0,0,0-.9,1.61s0-1.75-.28-2A17.42,17.42,0,0,0,276.71,94.56Z"/><path class="cls-9" d="M304.08,170.73h0a2,2,0,0,0,.64-2.72l-41.33-67.47a1.85,1.85,0,0,0-2.63-.53h0a2,2,0,0,0-.65,2.72l41.33,67.47A1.86,1.86,0,0,0,304.08,170.73Z"/><path class="cls-10" d="M265.83,107l6.59-.46a1.48,1.48,0,0,0,1.06-2.37l-4.11-5.05a1.38,1.38,0,0,1-.24-1.29L271,91.31a1.35,1.35,0,0,0-1.83-1.66L263,92.32a1.34,1.34,0,0,1-1.29-.1l-5.41-3.58a1.46,1.46,0,0,0-2.2,1.35l.3,6.7a1.47,1.47,0,0,1-.55,1.23l-5.25,4.32a1.41,1.41,0,0,0,.47,2.49l6.36,1.47a1.37,1.37,0,0,1,1,.86l2.16,6.25a1.37,1.37,0,0,0,2.48.19l3.63-5.79A1.48,1.48,0,0,1,265.83,107Z"/><path class="cls-8" d="M256.24,91.41a1,1,0,0,1,1.06,0l4,2.79a1,1,0,0,0,1,.1l4.66-1.88a1,1,0,0,1,1.33,1.28l-1.55,4.85a1.07,1.07,0,0,0,.15,1l3,3.86a1.11,1.11,0,0,1-.85,1.75l-4.92.21a1.12,1.12,0,0,0-.53.18Z"/><path class="cls-8" d="M271.86,80.13s2.39.29,3-1.7A2.82,2.82,0,0,0,277,80.86s-2.65,0-2.78,1.59A2.8,2.8,0,0,0,271.86,80.13Z"/><path class="cls-8" d="M280.31,84.29s4.51.55,5.63-3.19c0,0,.44,3.93,4.05,4.58,0,0-5,0-5.25,3C284.74,88.66,284.11,84.67,280.31,84.29Z"/></g></g></g></g></svg>